Format                           : MPEG-TS
File size                        : 618 MiB
Duration                         : 6mn 51s
Overall bit rate mode            : Variable
Overall bit rate                 : 12.6 Mbps

Video
ID                               : 1984 (0x7C0)
Menu ID                          : 1 (0x1)
Format                           : MPEG Video
Format_Commercial_IfAny          : HDV 720p
Format version                   : Version 2
Format profile                   : Main@High 1440
Format settings, BVOP            : No
Format settings, Matrix          : Default
Codec ID                         : 2
Duration                         : 6mn 51s
Bit rate mode                    : Variable
Bit rate                         : 11.6 Mbps
Maximum bit rate                 : 15.0 Mbps
Width                            : 1 280 pixels
Height                           : 720 pixels
Display aspect ratio             : 16:9
Frame rate                       : 59.940 fps
Color space                      : YUV
Chroma subsampling               : 4:2:0
Bit depth                        : 8 bits
Scan type                        : Progressive
Compression mode                 : Lossy
Bits/(Pixel*Frame)               : 0.210
Stream size                      : 568 MiB (92%)

Audio
ID                               : 1985 (0x7C1)
Menu ID                          : 1 (0x1)
Format                           : AC-3
Format/Info                      : Audio Coding 3
Mode extension                   : CM (complete main)
Codec ID                         : 129
Duration                         : 6mn 51s
Bit rate mode                    : Constant
Bit rate                         : 384 Kbps
Channel(s)                       : 6 channels
Channel positions                : Front: L C R, Side: L R, LFE
Sampling rate                    : 48.0 KHz
Bit depth                        : 16 bits
Compression mode                 : Lossy
Delay relative to video          : -14ms
Stream size                      : 18.8 MiB (3%)
Language                         : English
